#define Greninja3_left_black_width 125
#define Greninja3_left_black_height 122
static const unsigned char Greninja3_left_black_bits[] = {
0x00, 0x00, 0x00, 0x00, 0x00, 0x00, 0x00, 0x00, 0x00, 0x00, 0x00, 0x00,
0x00, 0x00, 0x00, 0x00, 0x00, 0x00, 0x00, 0x00, 0x00, 0x00, 0x00, 0x00,
0x00, 0x00, 0x00, 0x00, 0x00, 0x00, 0x00, 0x00, 0x00, 0x00, 0x00, 0x00,
0x00, 0x00, 0x04, 0x00, 0x00, 0x00, 0x00, 0x00, 0x00, 0x00, 0x00, 0x00,
0x00, 0x00, 0x00, 0x00, 0x00, 0x00, 0x08, 0x00, 0x00, 0x00, 0x00, 0x00,
0x00, 0x00, 0x00, 0x00, 0x00, 0x80, 0x00, 0x00, 0x00, 0x00, 0x08, 0x00,
0x00, 0x00, 0x00, 0x00, 0x00, 0x00, 0x00, 0x00, 0x00, 0x00, 0x00, 0x00,
0x00, 0x00, 0x10, 0x00, 0x00, 0x00, 0x00, 0x00, 0x70, 0x00, 0x00, 0x00,
0x00, 0x40, 0x00, 0x00, 0x00, 0x00, 0x10, 0x00, 0x00, 0x00, 0x00, 0x00,
0xFC, 0x01, 0x00, 0x00, 0x00, 0x00, 0x00, 0x00, 0x00, 0x00, 0x20, 0x00,
0x00, 0x00, 0x00, 0x00, 0xFC, 0x03, 0x00, 0x00, 0x00, 0x20, 0x00, 0x00,
0x00, 0x00, 0x20, 0x00, 0x00, 0x00, 0x00, 0x00, 0xFE, 0x01, 0x00, 0x00,
0x00, 0x00, 0x00, 0x00, 0x00, 0x00, 0x00, 0x00, 0x00, 0x00, 0x00, 0x00,
0xFE, 0x00, 0x00, 0x00, 0x00, 0x00, 0x00, 0x00, 0x00, 0x00, 0x40, 0x00,
0x00, 0x00, 0x00, 0x00, 0xFC, 0xE0, 0x00, 0x00, 0x00, 0x00, 0x00, 0x00,
0x00, 0x00, 0x00, 0x00, 0x00, 0x00, 0x00, 0x00, 0x7C, 0xF1, 0x01, 0x00,
0x00, 0x00, 0x00, 0x00, 0x00, 0x00, 0x80, 0x00, 0x00, 0x00, 0x00, 0x00,
0x78, 0xF2, 0x07, 0x00, 0x00, 0x00, 0x00, 0x00, 0x00, 0x00, 0x80, 0x00,
0x00, 0x00, 0x00, 0x00, 0x78, 0xF8, 0x0F, 0x00, 0x00, 0x20, 0x00, 0x00,
0x00, 0x00, 0x00, 0x01, 0x00, 0x00, 0x00, 0x00, 0x78, 0xE0, 0x1F, 0x00,
0x00, 0x20, 0x00, 0x00, 0x00, 0x00, 0x00, 0x01, 0x00, 0x00, 0x00, 0x00,
0x78, 0xF0, 0x1F, 0x00, 0x00, 0x00, 0x00, 0x00, 0x00, 0x00, 0x00, 0x02,
0x00, 0x00, 0x00, 0x00, 0x78, 0xF8, 0x1F, 0x00, 0x00, 0x40, 0x00, 0x00,
0x00, 0x00, 0x00, 0x02, 0x00, 0x00, 0x00, 0x00, 0x78, 0x7C, 0x0F, 0x00,
0x00, 0x00, 0x00, 0x00, 0x00, 0x00, 0x00, 0x04, 0x00, 0x00, 0x00, 0x00,
0x78, 0x1E, 0x02, 0x00, 0x00, 0x00, 0x00, 0x00, 0x00, 0x00, 0x00, 0x04,
0x00, 0x00, 0x00, 0x00, 0x78, 0x0F, 0x02, 0x00, 0x00, 0x00, 0x00, 0x00,
0x00, 0x00, 0x00, 0x08, 0x00, 0x00, 0x00, 0x00, 0xFC, 0x07, 0x04, 0x00,
0x00, 0x00, 0x01, 0x00, 0x00, 0x00, 0x00, 0x08, 0x00, 0x00, 0x00, 0x00,
0xFC, 0x03, 0xC0, 0x00, 0x00, 0x00, 0x02, 0x00, 0x00, 0x00, 0x00, 0x00,
0x00, 0x00, 0x00, 0x00, 0xFC, 0x0F, 0xF0, 0x01, 0x00, 0x00, 0x04, 0x00,
0x00, 0x00, 0x00, 0x10, 0x00, 0x00, 0x00, 0x18, 0xFF, 0xFF, 0xFF, 0x03,
0x00, 0x00, 0x08, 0x00, 0x00, 0x00, 0x00, 0x00, 0x00, 0x00, 0x00, 0x1E,
0xFF, 0xFF, 0xFF, 0x07, 0x00, 0x00, 0x10, 0x00, 0x00, 0x00, 0x00, 0x20,
0x00, 0x00, 0x00, 0x0F, 0xFF, 0xFF, 0xFF, 0x07, 0x00, 0x00, 0x00, 0x00,
0x00, 0x00, 0x00, 0x20, 0x00, 0x00, 0xC0, 0x07, 0x3E, 0x00, 0xFB, 0x07,
0x00, 0x00, 0x80, 0x00, 0x00, 0x00, 0x00, 0x40, 0x00, 0x00, 0xC0, 0x03,
0x0C, 0x00, 0xE3, 0x03, 0x00, 0x00, 0x00, 0x02, 0x00, 0x00, 0x00, 0x40,
0x00, 0x00, 0xC0, 0x02, 0x0C, 0x00, 0xC7, 0x01, 0x00, 0x00, 0x00, 0x00,
0x00, 0x00, 0x00, 0x80, 0x00, 0x00, 0xE0, 0x01, 0x04, 0x80, 0x07, 0x00,
0x00, 0x00, 0x00, 0x10, 0x00, 0x00, 0x00, 0x80, 0x00, 0x00, 0xE0, 0x03,
0x00, 0x80, 0x07, 0x00, 0x00, 0x00, 0x00, 0x40, 0x00, 0x00, 0x00, 0x00,
0x01, 0x00, 0xD0, 0x03, 0x00, 0x80, 0x07, 0x00, 0x00, 0x00, 0x00, 0x00,
0x01, 0x00, 0x00, 0x00, 0x01, 0x00, 0xD0, 0x07, 0x02, 0xC0, 0x0F, 0x00,
0x00, 0x00, 0x00, 0x00, 0x00, 0x00, 0x00, 0x00, 0x02, 0x00, 0xD0, 0x07,
0x00, 0xC0, 0x0F, 0x00, 0x00, 0x00, 0x00, 0x00, 0x20, 0x00, 0x00, 0x00,
0x02, 0x00, 0xC0, 0x2F, 0x00, 0xC0, 0x0F, 0x00, 0x00, 0x00, 0x00, 0x00,
0x00, 0x01, 0x00, 0x00, 0x04, 0x00, 0x80, 0xDF, 0x00, 0xE0, 0x1F, 0x00,
0x00, 0x00, 0x00, 0x00, 0x00, 0x08, 0x00, 0x00, 0x04, 0x00, 0x00, 0x5F,
0x00, 0xE0, 0x1F, 0x00, 0x00, 0x00, 0x00, 0x00, 0x00, 0x00, 0x01, 0x00,
0x0C, 0x00, 0x00, 0x3E, 0x00, 0xE0, 0x1F, 0x00, 0x00, 0x00, 0x00, 0x00,
0x00, 0x00, 0x40, 0x00, 0x08, 0x00, 0x00, 0x7E, 0x00, 0xF0, 0x0F, 0x00,
0x00, 0x00, 0x00, 0x00, 0x00, 0x00, 0x00, 0xC0, 0x0E, 0x00, 0x00, 0x7E,
0x00, 0xF0, 0x0F, 0x00, 0x00, 0x00, 0x00, 0x00, 0x00, 0x00, 0x00, 0x00,
0x06, 0xC0, 0xFF, 0xFF, 0x00, 0xFC, 0x07, 0x00, 0x00, 0x00, 0x00, 0x00,
0x00, 0x00, 0x00, 0x80, 0x01, 0xC0, 0xFF, 0xFF, 0x01, 0xF0, 0x07, 0x00,
0x00, 0x00, 0x00, 0x00, 0x00, 0x00, 0x00, 0x40, 0x20, 0xC0, 0xFF, 0xFF,
0x03, 0xF8, 0x03, 0x00, 0x00, 0x00, 0x00, 0x00, 0x00, 0x0C, 0x00, 0x38,
0x00, 0xE0, 0xFF, 0xFF, 0x03, 0xF8, 0x03, 0x00, 0x00, 0x00, 0x00, 0x00,
0x00, 0x0E, 0x80, 0x1F, 0x40, 0xE0, 0xFF, 0xFF, 0x07, 0xF8, 0x01, 0x00,
0x00, 0x00, 0x00, 0x00, 0x00, 0x0E, 0xF0, 0x1F, 0x40, 0xE0, 0xFF, 0xFF,
0x0F, 0xF8, 0x01, 0x00, 0x00, 0x00, 0x00, 0x00, 0x00, 0x0E, 0xFC, 0x0F,
0x40, 0xA0, 0xFF, 0xFF, 0x1F, 0xF8, 0x00, 0x00, 0x00, 0x00, 0x00, 0x00,
0x00, 0x1F, 0xFF, 0x07, 0x40, 0xE0, 0xFF, 0xFF, 0x3F, 0xF8, 0x00, 0x00,
0x00, 0x00, 0x00, 0x00, 0x00, 0xDF, 0xFF, 0x07, 0x00, 0xE0, 0xCF, 0xFF,
0x7F, 0x78, 0x00, 0x00, 0x00, 0x00, 0x00, 0x00, 0x80, 0xFF, 0xFF, 0x07,
0x00, 0xF0, 0x9F, 0xFF, 0xFF, 0x7C, 0x00, 0x00, 0x00, 0x00, 0x00, 0x00,
0x80, 0xFF, 0xFF, 0x07, 0x00, 0xF0, 0x1F, 0xFF, 0xFF, 0x3D, 0x00, 0x00,
0x00, 0x00, 0x00, 0x00, 0xC0, 0xFF, 0xFF, 0x07, 0x00, 0xF0, 0x3F, 0xFE,
0xFF, 0x1F, 0x00, 0x00, 0x00, 0x00, 0x00, 0x00, 0xC0, 0xFF, 0xFF, 0x0F,
0x00, 0xE0, 0x3F, 0xF8, 0xFF, 0x1F, 0x00, 0x00, 0x00, 0x00, 0x00, 0x00,
0xC0, 0xFF, 0xFF, 0x3F, 0x00, 0xE0, 0x3F, 0xF8, 0xFF, 0x0F, 0x00, 0x00,
0x00, 0x00, 0x00, 0x00, 0xE0, 0xFF, 0xFF, 0x7F, 0x00, 0xC0, 0x3F, 0xF8,
0xFF, 0x0F, 0x00, 0x00, 0x00, 0x00, 0x00, 0x00, 0xE0, 0xFF, 0xFF, 0xFF,
0x00, 0xC0, 0x3F, 0xFC, 0x3F, 0x00, 0x00, 0x00, 0x00, 0x00, 0x00, 0x00,
0xF0, 0xFF, 0xFF, 0xFF, 0x01, 0x80, 0x3F, 0xFE, 0x1F, 0x00, 0x00, 0x00,
0x00, 0x00, 0x00, 0x00, 0xF0, 0xFF, 0xFF, 0xFF, 0x03, 0x00, 0xBF, 0xFF,
0x1F, 0x00, 0x00, 0x00, 0x00, 0x00, 0x00, 0x00, 0xF8, 0xFF, 0xFF, 0xFF,
0x03, 0x40, 0xFE, 0xFF, 0x1F, 0x00, 0x00, 0x00, 0x00, 0x00, 0x00, 0x00,
0xFE, 0xFF, 0xFF, 0xFF, 0x07, 0x00, 0xFD, 0xFF, 0x1F, 0x00, 0x00, 0x00,
0x00, 0x00, 0x00, 0x80, 0xFF, 0x3F, 0xF8, 0x7F, 0x00, 0xA0, 0x78, 0xFE,
0x0F, 0x00, 0x00, 0x00, 0x00, 0x00, 0x00, 0xE0, 0xFF, 0x0F, 0xF0, 0x1F,
0x00, 0x40, 0x30, 0xFE, 0x1F, 0x00, 0x00, 0x00, 0x00, 0x00, 0x00, 0xF0,
0xFF, 0x03, 0x00, 0x0F, 0x00, 0x00, 0x00, 0xFC, 0x1F, 0x00, 0x00, 0x00,
0x00, 0x00, 0x00, 0xF8, 0xFF, 0x01, 0x00, 0x07, 0x00, 0x00, 0x00, 0xFC,
0x3F, 0x00, 0x00, 0x00, 0x00, 0x00, 0x00, 0xF8, 0x7F, 0x00, 0x80, 0x0F,
0x00, 0x00, 0x00, 0xFC, 0x3F, 0x00, 0x00, 0x00, 0x00, 0x00, 0x40, 0xF8,
0x3F, 0x00, 0x80, 0x1F, 0x00, 0x00, 0x00, 0xFC, 0x3F, 0x00, 0x00, 0x00,
0x00, 0x00, 0x20, 0xF0, 0x3F, 0x00, 0xC0, 0x3F, 0x00, 0x00, 0x00, 0xF8,
0xFF, 0x00, 0x00, 0x00, 0x00, 0x00, 0xF0, 0xFF, 0x1F, 0xC0, 0xF3, 0xFF,
0x00, 0x00, 0x00, 0xF0, 0x7F, 0x00, 0x00, 0x00, 0x00, 0x00, 0xF8, 0xFF,
0x3F, 0xFC, 0xFF, 0xFF, 0x07, 0x00, 0x00, 0xEC, 0x3F, 0x00, 0x00, 0x00,
0x00, 0x00, 0xFC, 0xFF, 0xFF, 0xFF, 0x7F, 0xFF, 0x0F, 0x00, 0x00, 0xE8,
0x3F, 0x00, 0x00, 0x00, 0x00, 0x00, 0xFE, 0xFF, 0xFF, 0xFF, 0x7F, 0xFE,
0x1F, 0x00, 0x00, 0xF0, 0x1F, 0x00, 0x00, 0x00, 0x00, 0x00, 0xFE, 0xFF,
0xFF, 0xFF, 0xFF, 0xFF, 0x1F, 0x18, 0x00, 0xE0, 0x0F, 0x00, 0x00, 0x00,
0x00, 0x00, 0xFF, 0xFF, 0xFF, 0xFF, 0xFF, 0xFF, 0x3F, 0x18, 0x00, 0xC0,
0x47, 0x00, 0x00, 0x00, 0x00, 0x00, 0xFF, 0xFF, 0xFF, 0xFF, 0xFF, 0xFF,
0x3F, 0x1C, 0x80, 0x81, 0x03, 0x00, 0x00, 0x00, 0x00, 0x80, 0xFF, 0xFF,
0xFF, 0xFF, 0xFF, 0xFF, 0x7F, 0x1E, 0x80, 0xF3, 0x31, 0x00, 0x00, 0x00,
0x00, 0x80, 0xFF, 0xFF, 0xFF, 0xFF, 0xFF, 0xFF, 0x7F, 0x1E, 0x00, 0xFF,
0x00, 0x00, 0x60, 0x00, 0x00, 0x80, 0xFF, 0xFF, 0xFF, 0xFF, 0xFF, 0xFF,
0xFF, 0x00, 0x80, 0xFF, 0x3F, 0xFE, 0xFF, 0x01, 0x00, 0x80, 0xFF, 0xFF,
0xFF, 0xFF, 0xFF, 0xFF, 0xFF, 0x00, 0x00, 0x00, 0xF0, 0xFF, 0xFF, 0x01,
0x00, 0x80, 0xFF, 0xFF, 0x7F, 0xFE, 0xFF, 0xFF, 0xFF, 0xF1, 0x0F, 0x00,
0xF8, 0xFF, 0xFF, 0x01, 0x00, 0x80, 0xFF, 0xFF, 0x7F, 0xFE, 0xFF, 0xFF,
0xFF, 0x9F, 0x80, 0xFF, 0xFF, 0xFF, 0xFF, 0x01, 0x00, 0x80, 0xFF, 0xFF,
0x7F, 0xFC, 0xFF, 0xFF, 0xFF, 0xC3, 0xF8, 0xFF, 0xFF, 0xFF, 0xFF, 0x00,
0x00, 0x80, 0xFF, 0xFF, 0x7F, 0xFC, 0xFF, 0xFF, 0xFF, 0xF0, 0xFE, 0xFF,
0xFF, 0xFF, 0x7F, 0x00, 0x00, 0x80, 0xFF, 0xFF, 0x7F, 0xFC, 0xFF, 0xFF,
0x7F, 0xF8, 0xFF, 0xFF, 0xF0, 0xFF, 0x1F, 0x00, 0x00, 0x80, 0xFF, 0xFF,
0x3F, 0xFC, 0xFF, 0xFF, 0x1F, 0x7F, 0x00, 0x00, 0x00, 0x00, 0x00, 0x00,
0x00, 0x80, 0xFF, 0xFF, 0x1F, 0xFC, 0xFF, 0xFF, 0xCF, 0x7F, 0x00, 0x00,
0x00, 0x00, 0x00, 0x00, 0x00, 0x00, 0xFF, 0xFF, 0x1F, 0xFE, 0xFF, 0xFF,
0xFF, 0x3F, 0x00, 0x00, 0x00, 0x00, 0x00, 0x00, 0x00, 0x00, 0xFF, 0xFF,
0x0F, 0xFE, 0xFF, 0xFF, 0xFF, 0x3F, 0x00, 0x00, 0x00, 0x00, 0x00, 0x00,
0x00, 0x00, 0xFE, 0xFF, 0x07, 0xFE, 0xFF, 0xFF, 0xFF, 0x1F, 0x00, 0x00,
0x00, 0x00, 0x00, 0x00, 0x00, 0x00, 0xFC, 0xFF, 0x03, 0xFE, 0xFF, 0xFF,
0xFF, 0x0F, 0x00, 0x00, 0x00, 0x00, 0x00, 0x00, 0x00, 0x00, 0xFC, 0xFF,
0x00, 0xFF, 0xFF, 0xFF, 0xFF, 0x07, 0x00, 0x00, 0x00, 0x00, 0x00, 0x00,
0x00, 0x00, 0xFE, 0x00, 0x00, 0xFF, 0xFF, 0xFF, 0xFF, 0x03, 0x00, 0x00,
0x00, 0x00, 0x00, 0x00, 0x00, 0x00, 0x7E, 0x00, 0x00, 0xFF, 0xFF, 0xFF,
0xFF, 0x01, 0x00, 0x00, 0x00, 0x00, 0x00, 0x00, 0x00, 0x00, 0x7F, 0x00,
0x00, 0xFF, 0xFF, 0xFF, 0xFF, 0x01, 0x00, 0x00, 0x00, 0x00, 0x00, 0x00,
0x00, 0x80, 0x3F, 0x00, 0x80, 0xFF, 0xFF, 0xFF, 0xFF, 0x01, 0x00, 0x00,
0x00, 0x00, 0x00, 0x00, 0x00, 0xC0, 0x1F, 0x00, 0xC0, 0xFF, 0xFF, 0xFF,
0xFF, 0x01, 0x00, 0x00, 0x00, 0x00, 0x00, 0x00, 0x00, 0xE0, 0x1F, 0x00,
0xF0, 0xFF, 0xFF, 0xFF, 0xFF, 0x03, 0x00, 0x00, 0x00, 0x00, 0x00, 0x00,
0x00, 0xF0, 0x1F, 0x00, 0xF0, 0xFF, 0xFF, 0xFF, 0xFF, 0x03, 0x00, 0x00,
0x00, 0x00, 0x00, 0x00, 0x00, 0xF8, 0x0F, 0x00, 0xF8, 0xFF, 0xFF, 0xF3,
0xFF, 0x03, 0x00, 0x00, 0x00, 0x00, 0x00, 0x00, 0x00, 0xFC, 0x0F, 0x00,
0xF8, 0xFF, 0xFF, 0xFD, 0xFF, 0x03, 0x00, 0x00, 0x00, 0x00, 0x00, 0x00,
0x00, 0xFE, 0x0F, 0x00, 0xF8, 0xFF, 0xBE, 0xFD, 0xFF, 0x03, 0x00, 0x00,
0x00, 0x00, 0x00, 0x00, 0x00, 0xFF, 0x0F, 0x00, 0xF8, 0x7F, 0xE0, 0xFF,
0xFF, 0x01, 0x00, 0x00, 0x00, 0x00, 0x00, 0x00, 0xE0, 0xFF, 0x07, 0x00,
0xF0, 0x3F, 0xF0, 0xFF, 0x7F, 0x00, 0x00, 0x00, 0x00, 0x00, 0x00, 0x00,
0xF0, 0xFF, 0x07, 0x00, 0xE0, 0x0F, 0xF8, 0x1F, 0x00, 0x00, 0x00, 0x00,
0x00, 0x00, 0x00, 0x00, 0xF8, 0xFF, 0x07, 0x00, 0x00, 0x00, 0xFC, 0x0F,
0x00, 0x00, 0x00, 0x00, 0x00, 0x00, 0x00, 0x00, 0xF8, 0xFF, 0x07, 0x00,
0x00, 0x00, 0xFE, 0x0F, 0x00, 0x00, 0x00, 0x00, 0x00, 0x00, 0x00, 0x00,
0xFC, 0xFF, 0x03, 0x00, 0x00, 0x00, 0xFF, 0x07, 0x00, 0x00, 0x00, 0x00,
0x00, 0x00, 0x00, 0x00, 0xFC, 0xFF, 0x03, 0x00, 0x00, 0x00, 0xFF, 0x03,
0x00, 0x00, 0x00, 0x00, 0x00, 0x00, 0x00, 0x00, 0xFC, 0xFD, 0x03, 0x00,
0x00, 0x80, 0xFF, 0x03, 0x00, 0x00, 0x00, 0x00, 0x00, 0x00, 0x00, 0x00,
0xFC, 0xFD, 0x03, 0x00, 0x00, 0xC0, 0xFF, 0x01, 0x00, 0x00, 0x00, 0x00,
0x00, 0x00, 0x00, 0x00, 0xFC, 0xFE, 0x07, 0x00, 0x00, 0xC0, 0xFF, 0x01,
0x00, 0x00, 0x00, 0x00, 0x00, 0x00, 0x00, 0x00, 0xFC, 0xFF, 0x07, 0x00,
0x00, 0xE0, 0xFF, 0x00, 0x00, 0x00, 0x00, 0x00, 0x00, 0x00, 0x00, 0x00,
0x78, 0xFF, 0x07, 0x00, 0x00, 0xE0, 0xFF, 0x00, 0x00, 0x00, 0x00, 0x00,
0x00, 0x00, 0x00, 0x00, 0x00, 0xFF, 0x07, 0x00, 0x00, 0xF0, 0x7F, 0x00,
0x00, 0x00, 0x00, 0x00, 0x00, 0x00, 0x00, 0x00, 0x00, 0xFF, 0x07, 0x00,
0x00, 0xF0, 0x7F, 0x00, 0x00, 0x00, 0x00, 0x00, 0x00, 0x00, 0x00, 0x00,
0x00, 0xFE, 0x03, 0x00, 0x00, 0xF0, 0x3F, 0x00, 0x00, 0x00, 0x00, 0x00,
0x00, 0x00, 0x00, 0x00, 0x00, 0xFC, 0x01, 0x00, 0x00, 0xF8, 0x1F, 0x00,
0x00, 0x00, 0x00, 0x00, 0x00, 0x00, 0x00, 0x00, 0x00, 0x00, 0x00, 0x00,
0x00, 0xF8, 0x0F, 0x00, 0x00, 0x00, 0x00, 0x00, 0x00, 0x00, 0x00, 0x00,
0x00, 0x00, 0x00, 0x00, 0x00, 0xF8, 0x0F, 0x00, 0x00, 0x00, 0x00, 0x00,
0x00, 0x00, 0x00, 0x00, 0x00, 0x00, 0x00, 0x00, 0x00, 0xF8, 0x07, 0x00,
0x00, 0x00, 0x00, 0x00, 0x00, 0x00, 0x00, 0x00, 0x00, 0x00, 0x00, 0x00,
0x00, 0xF8, 0x03, 0x00, 0x00, 0x00, 0x00, 0x00, 0x00, 0x00, 0x00, 0x00,
0x00, 0x00, 0x00, 0x00, 0x00, 0xF8, 0x00, 0x00, 0x00, 0x00, 0x00, 0x00,
0x00, 0x00, 0x00, 0x00, 0x00, 0x00, 0x00, 0x00, 0x00, 0x70, 0x00, 0x00,
0x00, 0x00, 0x00, 0x00, 0x00, 0x00, 0x00, 0x00
};
